PathFileType	4	(X/Y/Z)	/Users/niels/Desktop/University/Third Semester/Perception and Action/Exam/Gymnastics Motion Tracking/Code for Gym Tracking/Analyzed Data/Webcam_Backflip/id8_2_baseline_Sports2D/id8_2_baseline_Sports2D_px_person00.trc
DataRate	CameraRate	NumFrames	NumMarkers	Units	OrigDataRate	OrigDataStartFrame	OrigNumFrames
29.81132075471698	29.81132075471698	8	22	m	29.81132075471698	19	159
Frame#	Time	Hip			RHip			RKnee			RAnkle			RBigToe			RSmallToe			RHeel			LHip			LKnee			LAnkle			LBigToe			LSmallToe			LHeel			Neck			Head			Nose			RShoulder			RElbow			RWrist			LShoulder			LElbow			LWrist		
		X1	Y1	Z1	X2	Y2	Z2	X3	Y3	Z3	X4	Y4	Z4	X5	Y5	Z5	X6	Y6	Z6	X7	Y7	Z7	X8	Y8	Z8	X9	Y9	Z9	X10	Y10	Z10	X11	Y11	Z11	X12	Y12	Z12	X13	Y13	Z13	X14	Y14	Z14	X15	Y15	Z15	X16	Y16	Z16	X17	Y17	Z17	X18	Y18	Z18	X19	Y19	Z19	X20	Y20	Z20	X21	Y21	Z21	X22	Y22	Z22
19	0.6373417721518987	0.9822910833595807	-0.5846064790910056	0.0	0.9841737937205333	-0.5837732440547284	0.0	0.9802741159691659	-0.6852523915588972	0.0	0.971396318916935	-0.7804100802195838	0.0	1.000744983248975	-0.8003890707279965	0.0	0.9925381873504682	-0.8040173362173881	0.0	0.965994864084282	-0.7964958002913554	0.0	0.9818330465244045	-0.5827064154220594	0.0	0.9795309440785211	-0.6841904311928508	0.0	0.9699912735884708	-0.7747577528898648	0.0	0.9976900792133238	-0.7951681329375382	0.0	0.9934939576197089	-0.7940413243447987	0.0	0.9611589610740465	-0.7885478341094035	0.0	1.0103238016318552	-0.45668771552009024	0.0	1.0298159333928316	-0.3975739566814605	0.0	1.0411856041795677	-0.43208205810806455	0.0	1.0062916622562237	-0.4684263884663414	0.0	0.9833539331091613	-0.5190048507374968	0.0	0.968250349911177	-0.5633077116876114	0.0	1.0008724708304675	-0.4686603936093449	0.0	0.978605519955142	-0.5146804201670035	0.0	0.963637969308852	-0.5585709934567161	0.0
20	0.6708860759493671	0.9815336488212328	-0.5786118433582494	0.0	0.9830836613621653	-0.5776109889345789	0.0	0.9809370923594674	-0.6808613827058643	0.0	0.9720770306158273	-0.7767607557599668	0.0	1.0009381571196667	-0.797222566128141	0.0	0.9926809583071269	-0.8008365244100805	0.0	0.9663592340371135	-0.7923671711175307	0.0	0.9811429628040869	-0.5763517178304686	0.0	0.9799208453280467	-0.6793324827987239	0.0	0.970365757466594	-0.7702714004828972	0.0	0.9982921148707649	-0.7910043324340624	0.0	0.9942344000030046	-0.7899799345875408	0.0	0.9619687976436151	-0.7836310855814088	0.0	1.0116163213660325	-0.4527230928925422	0.0	1.0331595235178523	-0.3935992885506844	0.0	1.043211157571602	-0.42826141261867046	0.0	1.0080794046161858	-0.4628945907387631	0.0	0.9776161108899794	-0.5086356162909339	0.0	0.9591936185024404	-0.5450266849451504	0.0	1.0019429849676107	-0.46305588523996033	0.0	0.9747282708666519	-0.5024153908450557	0.0	0.9551204187708268	-0.5401899208361739	0.0
21	0.7044303797468354	0.9795449282391459	-0.571699599237844	0.0	0.9806893633532447	-0.570538882828642	0.0	0.9813687659693232	-0.675078066805506	0.0	0.972527515956143	-0.772162180501599	0.0	1.0018548422502156	-0.792919834092906	0.0	0.9935007396262268	-0.7964146536646225	0.0	0.9663672925967675	-0.787140939964447	0.0	0.9789962242861107	-0.5691421929896694	0.0	0.980014813294306	-0.6731099521938388	0.0	0.9705613166895936	-0.7651784261172478	0.0	0.9994127837146699	-0.785912572388694	0.0	0.995430145069705	-0.7848325940036011	0.0	0.9624496410304345	-0.7779314932599551	0.0	1.013115732791475	-0.44797907637120893	0.0	1.0369437801078119	-0.3892647320195775	0.0	1.0456553575546184	-0.423895613724929	0.0	1.0103018306323117	-0.4568637044764084	0.0	0.9736489138023707	-0.4980780782336815	0.0	0.9530579987104107	-0.526424615622436	0.0	1.0031324260546644	-0.4567948998581149	0.0	0.9729326585392688	-0.48967558996014676	0.0	0.9502795175170118	-0.5212481771586079	0.0
22	0.7379746835443037	0.9764331445653845	-0.5646789280694778	0.0	0.9772103445725449	-0.5634072157317732	0.0	0.9818674088411764	-0.6684496298019824	0.0	0.9728594220919229	-0.766955807429877	0.0	1.0033383266405684	-0.7877788922006361	0.0	0.9948646876937453	-0.7911290751721018	0.0	0.9661980813038774	-0.7812687279223977	0.0	0.9756371599920175	-0.562007491677631	0.0	0.9801300289363802	-0.6662314969544172	0.0	0.970783261251782	-0.7600573364194075	0.0	1.0008502942412487	-0.7805705650016602	0.0	0.996789589121607	-0.7791532911340474	0.0	0.9625750120891878	-0.7721163346432476	0.0	1.0148615352186978	-0.4431272345400597	0.0	1.0410646057089226	-0.38537821994877586	0.0	1.048429723547432	-0.4196786467844498	0.0	1.0128601872625085	-0.45105552791152004	0.0	0.9715102727698411	-0.4878210480781073	0.0	0.9488323211563883	-0.5090847399220766	0.0	1.0046134101133541	-0.45065333870218854	0.0	0.972724413000922	-0.4774348465576388	0.0	0.9479632730967071	-0.5036704783727592	0.0
23	0.7715189873417722	0.9723393760771251	-0.5582379639886965	0.0	0.9729130890898235	-0.5569121398584821	0.0	0.9827923288862433	-0.6615917583282841	0.0	0.9731564983556235	-0.7615235089921846	0.0	1.0051092389221739	-0.7821450204476165	0.0	0.9965329142328473	-0.7854183431859254	0.0	0.9659847661534592	-0.7752005726636176	0.0	0.9714330351359383	-0.5556490810363981	0.0	0.9806674209176325	-0.6593348701487557	0.0	0.9711620479641294	-0.7552288052111367	0.0	1.0022934179363954	-0.7755551908673783	0.0	0.997927119916532	-0.7733913344972616	0.0	0.9623678523020137	-0.7666581085684409	0.0	1.0168387118276483	-0.43906830494934423	0.0	1.045459758911009	-0.3827761140269113	0.0	1.0514385361880298	-0.41640892648243216	0.0	1.0155652195073024	-0.4463255473068107	0.0	0.9709718529457039	-0.4785042094390541	0.0	0.9454013467806078	-0.4944363281214763	0.0	1.0065372020690262	-0.4455479457121735	0.0	0.9733544441816014	-0.4667606943881704	0.0	0.9467212384028819	-0.4891830080922241	0.0
24	0.8050632911392405	0.9674866501942223	-0.55302284087571	0.0	0.9680829431614046	-0.5516944834048357	0.0	0.9844122036670033	-0.6551492740409763	0.0	0.9734415048307797	-0.7562851037559546	0.0	1.0068564499747814	-0.776457779904324	0.0	0.9982449782788203	-0.7797717886787972	0.0	0.9657694649846891	-0.7693691920869657	0.0	0.9667598832953771	-0.5506557961695152	0.0	0.9819398482878103	-0.6529639693903206	0.0	0.9716658009541608	-0.750708588322607	0.0	1.0034558840816334	-0.7712679650049394	0.0	0.998520533386978	-0.7679314435853419	0.0	0.9619158198416078	-0.761845033594225	0.0	1.0189356001992653	-0.43681393136013685	0.0	1.0500953257632244	-0.38225332300015175	0.0	1.0545849432667778	-0.4149287771103764	0.0	1.0181549358621096	-0.44368511524743	0.0	0.9713464047302389	-0.47126116068072144	0.0	0.9416314688413728	-0.48380847238535146	0.0	1.0089013069142503	-0.4424817998520194	0.0	0.973927904325296	-0.45895888463971757	0.0	0.9451049267440846	-0.47919963161221807	0.0
25	0.8386075949367088	0.9622088413603668	-0.5497244360791065	0.0	0.9630238446643853	-0.5484389678818136	0.0	0.9868078949757235	-0.6497635381566205	0.0	0.9736868785635668	-0.751667218303749	0.0	1.0083333810083703	-0.7712304429436205	0.0	0.9997735837578365	-0.7746970649879231	0.0	0.9655431954532361	-0.7642002793330197	0.0	0.9619516160398639	-0.5476304454260612	0.0	0.9840562200963425	-0.6476296615697045	0.0	0.9720776797294775	-0.7461517130105836	0.0	1.0041618222143602	-0.7678670810028498	0.0	0.998432832379665	-0.7632041146822288	0.0	0.9613692309863887	-0.7578876815440655	0.0	1.020951003444846	-0.4373297150987377	0.0	1.0547919525758869	-0.3844784287300891	0.0	1.057718645625603	-0.416046230041793	0.0	1.0203632824538746	-0.444162112016996	0.0	0.9716945258122703	-0.4675184058161127	0.0	0.9366642770205591	-0.47840585034211397	0.0	1.0115040038458343	-0.4424007693106303	0.0	0.9736954560061915	-0.4553148593190323	0.0	0.9420952311602262	-0.4746999379347592	0.0
26	0.8721518987341772	0.956913577121326	-0.5490591246869897	0.0	0.9580610202751436	-0.547858444646928	0.0	0.9899004960791469	-0.6460495260054477	0.0	0.9738386931316134	-0.7481227120956784	0.0	1.0094376983788906	-0.7670026603175366	0.0	1.0009678408922384	-0.7706887401045982	0.0	0.965285659805653	-0.7601681884417812	0.0	0.9573035417237474	-0.5471728116190776	0.0	0.9869411464216946	-0.6438479447720713	0.0	0.9719607931630859	-0.7408292665148684	0.0	1.0044130270613438	-0.7651474555817204	0.0	0.9977443952464292	-0.7597644444030631	0.0	0.9608730379844084	-0.7550575617367177	0.0	1.0226704073700337	-0.44133737329803047	0.0	1.0591214471134196	-0.38987998648544503	0.0	1.0606119808271877	-0.4203584381813519	0.0	1.0219759744426318	-0.44853643502014456	0.0	0.9712157329836828	-0.4686020779223331	0.0	0.9302835953928629	-0.47927297652930806	0.0	1.0139786289457373	-0.44598518633987105	0.0	0.9723319534659886	-0.45677574493026435	0.0	0.9374711869531004	-0.4762654926780467	0.0
